HIERARCHY
ROOT Hips
{
	OFFSET 0.000000 0.000000 0.000000
	CHANNELS 6 Xposition Yposition Zposition Yrotation Xrotation Zrotation
	JOINT Chest
	{
		OFFSET 0.000000 -0.009281 11.569106
		CHANNELS 3 Yrotation Xrotation Zrotation
		JOINT Chest2
		{
			OFFSET -0.000000 0.016865 9.269641
			CHANNELS 3 Yrotation Xrotation Zrotation
			JOINT Chest3
			{
				OFFSET -0.000000 0.000001 8.374491
				CHANNELS 3 Yrotation Xrotation Zrotation
				JOINT Chest4
				{
					OFFSET -0.000000 0.000001 8.374493
					CHANNELS 3 Yrotation Xrotation Zrotation
					JOINT Neck
					{
						OFFSET -0.000000 0.000002 12.152554
						CHANNELS 3 Yrotation Xrotation Zrotation
						JOINT Head
						{
							OFFSET -0.000000 0.040101 7.802319
							CHANNELS 3 Yrotation Xrotation Zrotation
							End Site
							{
								OFFSET -0.000000 0.020947 14.853096
							}
						}
					}
					JOINT RightCollar
					{
						OFFSET 2.894404 0.000001 6.791374
						CHANNELS 3 Yrotation Xrotation Zrotation
						JOINT RightShoulder
						{
							OFFSET 13.574684 0.000001 0.000000
							CHANNELS 3 Yrotation Xrotation Zrotation
							JOINT RightElbow
							{
								OFFSET 23.923903 0.000002 0.000000
								CHANNELS 3 Yrotation Xrotation Zrotation
								JOINT RightWrist
								{
									OFFSET 19.846718 0.012767 0.000000
									CHANNELS 3 Yrotation Xrotation Zrotation
									End Site
									{
										OFFSET 14.973145 0.000001 0.000000
									}
								}
							}
						}
					}
					JOINT LeftCollar
					{
						OFFSET -2.894404 0.000001 6.791374
						CHANNELS 3 Yrotation Xrotation Zrotation
						JOINT LeftShoulder
						{
							OFFSET -13.574684 -0.000001 0.000000
							CHANNELS 3 Yrotation Xrotation Zrotation
							JOINT LeftElbow
							{
								OFFSET -23.923903 -0.000002 0.000000
								CHANNELS 3 Yrotation Xrotation Zrotation
								JOINT LeftWrist
								{
									OFFSET -19.846718 0.012763 0.000000
									CHANNELS 3 Yrotation Xrotation Zrotation
									End Site
									{
										OFFSET -14.973145 -0.000001 0.000000
									}
								}
							}
						}
					}
				}
			}
		}
	}
	JOINT RightHip
	{
		OFFSET 9.469263 0.004643 0.045487
		CHANNELS 3 Yrotation Xrotation Zrotation
		JOINT RightKnee
		{
			OFFSET 0.000000 0.002661 -40.478676
			CHANNELS 3 Yrotation Xrotation Zrotation
			JOINT RightAnkle
			{
				OFFSET 0.000000 0.049106 -35.224068
				CHANNELS 3 Yrotation Xrotation Zrotation
				JOINT RightToe
				{
					OFFSET -0.000001 12.539529 -6.151390
					CHANNELS 3 Yrotation Xrotation Zrotation
					End Site
					{
						OFFSET -0.000001 5.044994 -1.291870
					}
				}
			}
		}
	}
	JOINT LeftHip
	{
		OFFSET -9.469263 0.004641 0.045487
		CHANNELS 3 Yrotation Xrotation Zrotation
		JOINT LeftKnee
		{
			OFFSET 0.000000 0.002661 -40.478676
			CHANNELS 3 Yrotation Xrotation Zrotation
			JOINT LeftAnkle
			{
				OFFSET 0.000000 0.049106 -35.224068
				CHANNELS 3 Yrotation Xrotation Zrotation
				JOINT LeftToe
				{
					OFFSET -0.000001 12.539529 -6.151390
					CHANNELS 3 Yrotation Xrotation Zrotation
					End Site
					{
						OFFSET -0.000001 5.044994 -1.291870
					}
				}
			}
		}
	}
}
MOTION
Frames: 11
Frame Time: 0.016667
14.751778 3.532001 82.570396 -3.352672 -0.392601 -109.948827 10.491802 1.428672 -7.878618 4.675882 0.455775 -3.521378 4.675879 0.455773 -3.521379 3.509657 0.314922 -2.644692 -2.882259 -17.594045 1.485702 -4.812353 3.514383 1.760312 6.691737 9.498823 -4.789692 58.752932 35.714721 18.943687 46.106837 32.402520 58.071949 -29.772316 46.008762 10.625512 -7.989292 1.721025 -10.673910 -72.862976 50.517865 -63.765697 -45.706274 46.145926 -57.796193 45.432762 47.915700 5.074301 -3.006056 -11.322685 3.609992 -0.454681 0.540570 1.566415 2.100944 7.296709 -2.438018 -0.119912 0.056414 -0.052569 -4.047409 -11.102157 3.738881 0.287700 0.461505 4.944787 -0.328600 6.307355 -1.001629 0.132962 0.117213 0.045707 
14.780939 3.534580 82.568687 -3.317838 -0.359808 -109.853921 10.523121 1.441667 -7.846384 4.691081 0.462021 -3.508478 4.691082 0.462021 -3.508477 3.521084 0.319617 -2.635071 -3.178949 -17.548899 2.562665 -4.992603 3.621129 3.645073 6.641426 9.481062 -4.817617 58.233728 35.596108 18.367364 46.618599 31.160815 59.006168 -30.815969 44.785643 9.202182 -7.994646 1.743275 -10.727111 -72.866534 50.425176 -63.830276 -45.687033 46.122744 -57.806131 45.719183 47.714530 5.338168 -3.024257 -11.336091 3.589775 -0.446326 0.586350 1.506785 2.132207 7.290564 -2.448827 -0.122461 0.049015 -0.052852 -4.051867 -11.080168 3.703539 0.282273 0.480046 4.907657 -0.336456 6.289672 -1.028933 0.121901 0.109466 0.045533 
14.812579 3.534985 82.566010 -3.285515 -0.330495 -109.747623 10.554273 1.451629 -7.815573 4.706258 0.467345 -3.495992 4.706260 0.467346 -3.495995 3.532484 0.323620 -2.625762 -3.473153 -17.492577 3.608320 -5.177619 3.743088 5.473334 6.574108 9.528944 -4.913005 57.742815 35.459941 17.819340 47.035527 29.877921 59.982482 -31.289506 43.299885 8.242981 -8.002704 1.791097 -10.781444 -72.901669 50.378809 -63.915906 -45.685865 46.065285 -57.780696 45.942168 47.583049 5.545051 -3.036428 -11.361287 3.554530 -0.444503 0.639509 1.448593 2.168450 7.285690 -2.457932 -0.124571 0.042535 -0.052643 -4.051935 -11.063805 3.682914 0.272800 0.499843 4.852954 -0.337520 6.278267 -1.054751 0.109809 0.097939 0.046038 
14.847923 3.532076 82.563316 -3.261686 -0.307965 -109.634556 10.593105 1.461980 -7.804960 4.724714 0.472283 -3.492401 4.724714 0.472283 -3.492401 3.546354 0.327247 -2.623127 -3.764498 -17.431181 4.638169 -5.361458 3.869622 7.274014 6.516979 9.597936 -4.966958 57.249806 35.438641 17.318631 47.311286 28.605054 60.854889 -30.772960 41.706740 7.952059 -8.002374 1.808177 -10.788356 -72.948387 50.337627 -64.012021 -45.721057 46.032845 -57.802696 46.049549 47.504003 5.636042 -3.040731 -11.410456 3.503216 -0.446078 0.712492 1.403356 2.208589 7.272158 -2.463366 -0.129679 0.039782 -0.050534 -4.049553 -11.063560 3.680339 0.271325 0.525109 4.781346 -0.341103 6.265817 -1.083744 0.096397 0.088495 0.045939 
14.885326 3.527971 82.561310 -3.237414 -0.286588 -109.525362 10.626647 1.477896 -7.793615 4.741013 0.479229 -3.488153 4.741014 0.479230 -3.488151 3.558609 0.332399 -2.620001 -4.030769 -17.378308 5.637169 -5.508907 3.974978 9.027058 6.483309 9.619934 -5.013528 56.770388 35.560902 16.935876 47.538281 27.429464 61.622233 -29.475159 40.276618 7.970767 -7.976567 1.780255 -10.781688 -72.969049 50.278658 -64.108265 -45.743471 46.045331 -57.861599 46.091571 47.457312 5.708824 -3.047170 -11.460153 3.448437 -0.444279 0.785204 1.370063 2.258211 7.256794 -2.473163 -0.142031 0.040880 -0.048948 -4.047619 -11.064330 3.673092 0.271280 0.549241 4.711455 -0.340538 6.251664 -1.113818 0.082416 0.083575 0.044894 
14.920018 3.524562 82.560646 -3.213646 -0.264712 -109.430654 10.654372 1.486740 -7.778341 4.755587 0.481998 -3.483054 4.755588 0.481998 -3.483055 3.569555 0.334432 -2.616212 -4.274598 -17.325140 6.605378 -5.624859 4.075434 10.731555 6.453283 9.632939 -5.021270 56.331890 35.793931 16.631473 47.946388 26.418610 62.448624 -27.876864 39.129973 7.981862 -7.935011 1.769128 -10.782402 -72.991520 50.233156 -64.193956 -45.795606 46.062803 -57.980451 46.147815 47.314022 5.780369 -3.070219 -11.498295 3.414532 -0.422998 0.843952 1.328867 2.309553 7.233755 -2.480717 -0.156977 0.052476 -0.045718 -4.047061 -11.058498 3.651458 0.275321 0.564938 4.658774 -0.341227 6.234506 -1.128312 0.068534 0.083261 0.042625 
14.950182 3.517044 82.561378 -3.189802 -0.252366 -109.355324 10.685796 1.487095 -7.753463 4.769441 0.481718 -3.473415 4.769443 0.481719 -3.473413 3.579936 0.334217 -2.608992 -4.504940 -17.263064 7.528028 -5.730512 4.187785 12.357194 6.392697 9.658310 -5.074600 56.012104 36.105780 16.443238 48.459905 25.518336 63.239595 -26.207699 38.254424 8.065642 -7.907920 1.806933 -10.784586 -73.027891 50.205753 -64.264068 -45.831184 46.029434 -58.079318 46.303891 47.074753 5.959860 -3.081749 -11.524588 3.420143 -0.406230 0.883698 1.269997 2.363005 7.220739 -2.483793 -0.171940 0.057937 -0.042730 -4.041248 -11.053954 3.620384 0.280528 0.577395 4.618647 -0.342676 6.217907 -1.119943 0.058380 0.084284 0.041043 
14.977024 3.507467 82.562363 -3.172776 -0.244106 -109.301127 10.718098 1.492393 -7.725900 4.783470 0.484114 -3.462283 4.783469 0.484113 -3.462280 3.590459 0.336021 -2.600674 -4.726931 -17.195350 8.395926 -5.838590 4.307117 13.885250 6.345204 9.692399 -5.112425 55.717275 36.519594 16.339998 48.812869 24.716037 63.854018 -24.312163 37.432585 8.457214 -7.889047 1.854203 -10.762364 -73.061502 50.197106 -64.307529 -45.831143 45.937137 -58.118018 46.629527 46.780611 6.291147 -3.085157 -11.550713 3.437972 -0.395449 0.917800 1.217138 2.411515 7.206918 -2.482676 -0.182938 0.061154 -0.040318 -4.032255 -11.056854 3.578961 0.281635 0.589422 4.593355 -0.343295 6.199461 -1.108536 0.049907 0.086638 0.039284 
15.000228 3.493944 82.562813 -3.166033 -0.238968 -109.272939 10.751134 1.489815 -7.699451 4.797659 0.483431 -3.450694 4.797660 0.483432 -3.450694 3.601089 0.335519 -2.591987 -4.947021 -17.111357 9.219120 -5.956609 4.454198 15.332293 6.330655 9.736741 -5.132220 55.490021 36.991837 16.393446 48.882322 24.060378 64.255291 -22.029701 36.552427 9.263410 -7.853075 1.860907 -10.712264 -73.081829 50.216551 -64.345532 -45.820461 45.831440 -58.105246 46.943002 46.680119 6.595473 -3.087792 -11.580332 3.435442 -0.395702 0.946974 1.197024 2.461819 7.194943 -2.460432 -0.187330 0.060231 -0.038335 -4.025708 -11.065285 3.534790 0.284253 0.590253 4.581106 -0.347678 6.189702 -1.082791 0.043583 0.086745 0.037498 
15.022776 3.480396 82.562363 -3.174564 -0.237536 -109.268205 10.780769 1.469520 -7.672213 4.810267 0.475152 -3.437239 4.810268 0.475153 -3.437239 3.610488 0.329346 -2.581844 -5.160525 -17.014088 10.000295 -6.074870 4.623685 16.705027 6.321889 9.740353 -5.183655 55.433003 37.479140 16.674327 48.826748 23.656239 64.489581 -19.158300 35.819605 10.565128 -7.784982 1.831770 -10.636429 -73.079220 50.224030 -64.388699 -45.839076 45.802456 -58.128209 47.028526 46.663907 6.707235 -3.088318 -11.620737 3.409532 -0.401919 0.975857 1.203571 2.503570 7.185784 -2.440117 -0.183333 0.052568 -0.037948 -4.024551 -11.089698 3.494541 0.286977 0.589396 4.579132 -0.351541 6.185523 -1.051035 0.037864 0.084964 0.035302 
15.042481 3.465096 82.561050 -3.187664 -0.235084 -109.280541 10.807201 1.449919 -7.648514 4.820869 0.466825 -3.425109 4.820870 0.466825 -3.425110 3.618383 0.323135 -2.572688 -5.358077 -16.932058 10.739486 -6.178757 4.762468 18.006003 6.308908 9.701587 -5.172950 55.453824 37.945304 17.015830 48.922429 23.598949 64.735707 -15.704435 35.361126 12.255418 -7.718699 1.812384 -10.554244 -73.038546 50.218406 -64.390495 -45.865352 45.843653 -58.204550 46.959682 46.739452 6.706899 -3.092181 -11.659243 3.377202 -0.408940 1.000276 1.215829 2.535370 7.181865 -2.414745 -0.171384 0.040045 -0.036635 -4.028271 -11.114572 3.462167 0.289513 0.581993 4.589861 -0.355439 6.188704 -1.016825 0.032000 0.081196 0.032881 
